<svg xmlns="http://www.w3.org/2000/svg" width="765" height="765"  stroke="#000" stroke-linecap="round" stroke-linejoin="round" fill="#fff" fill-rule="evenodd"><path d="M175.3747 669.0669c42.1783 50.9188 118.9279 85 206.5466 85s164.3684-34.0812 206.5466-85M726.1611 357.289c0-192.2118-154.2297-348.2221-344.2398-348.2221S37.6815 165.0772 37.6815 357.289c0 192.2041 154.2297 348.2217 344.2398 348.2217S726.1611 549.4931 726.1611 357.289z" fill="#f59e0b" stroke="none"/><g fill="#6366f1"><path d="M378.2757 705.5669c25.2583 6.7759 51.802 10.3905 79.1819 10.3905 168.8028 0 305.8181-137.2966 305.8181-306.4351 0-169.1454-137.0153-306.4354-305.8181-306.4354-27.3799 0-53.9236 3.6076-79.1819 10.3839" stroke="#6366f1" stroke-width="1.1339"/><path d="M388.2757 113.4708c-25.436-6.7763-52.1664-10.3839-79.739-10.3839-169.9902 0-307.9698 137.29-307.9698 306.4354 0 169.1385 137.9796 306.4351 307.9698 306.4351 27.5726 0 54.303-3.6146 79.739-10.3905" stroke="none"/></g><path d="M340.6125 218.0001c0-23.0663-18.5076-41.7866-41.3088-41.7866s-41.3088 18.7203-41.3088 41.7866 18.5078 41.7867 41.3088 41.7867 41.3088-18.7204 41.3088-41.7867zM177 604.5c56.6077 40.6791 128.301 65 206.25 65s149.6425-24.3209 206.25-65" stroke="none" fill="#f59e0b"/><path d="M175.1164 591.5669c63.6025 32.206 133.3895 50 206.5797 50s142.9773-17.794 206.5796-50" fill="#6366f1" stroke="#6366f1" stroke-width="1.1339"/><path d="M589.2338 590.5231c9.875-25.413 15.2989-53.0762 15.2989-82.013 0-123.8838-99.4082-224.4431-221.8785-224.4431S160.7758 384.6263 160.7758 508.5101c0 28.9368 5.4239 56.6 15.2987 82.013m329.7732-372.523c0-23.0663-18.5077-41.7866-41.3088-41.7866s-41.3088 18.7203-41.3088 41.7866 18.5077 41.7867 41.3088 41.7867 41.3088-18.7204 41.3088-41.7867z" fill="#f59e0b" stroke="none"/><g stroke="#6366f1" stroke-width="10"><path d="M429.5 335.66L398.5184 367" fill="#6366f1"/><path d="M336.0184 335.66L367 367" fill="#096dd9"/></g><path d="M324.5 219.5c0-13.7999-11.201-25-25.0001-25S274.5 205.7001 274.5 219.5s11.2008 25 24.9999 25 25.0001-11.2001 25.0001-25zm165 0c0-13.7999-11.201-25-25.0001-25S439.5 205.7001 439.5 219.5s11.2008 25 24.9999 25 25.0001-11.2001 25.0001-25z" stroke="none" fill="#1f2937"/></svg>